#!OML:ASF F:\VICON\USERDATA\INSTALL\rory3\rory3.ASF
:FULLY-SPECIFIED
:DEGREES
72
root 0.22850108483336712 18.012333601352037 27.15442988933616 -3.5823564944864636 0.5152857720703583 -2.457025885764608
lfemur 9.202095979285723 -2.429346432592586 -18.07150809221993
ltibia 54.14316748355846
lfoot 13.957580743552743 -15.96522384595863
ltoes -13.150552695739878
rfemur -25.59306798239139 5.974387405426808 26.9237810184358
rtibia 16.528390739521065
rfoot -9.18187571552714 -6.865992480255414
rtoes 7.2068179859330295
lowerback 9.579608374747977 -1.966562320072517 -0.5335915254580115
upperback 0.22398466128756817 -2.4699226904576816 3.3738760841584243
thorax -5.109288614487037 -1.1476917284534691 4.105729513767371
lowerneck -15.899158712219382 -1.9790824772005104 -2.2280179225263663
upperneck 22.202734047540883 -2.198115187876957 -0.26450484136328
head 9.624274327029834 -1.1998113569679032 -0.03913054314985337
lclavicle -1.230853250855655e-15 -1.0190451385460488e-15
lhumerus -21.88173652760368 -1.2927136376116901 80.58857822227533
lradius 24.57871398878062
lwrist 5.583965643282424
lhand -29.665613001989954 23.042494287750905
lfingers 7.125020000000056
lthumb -2.9942485691176812 52.98795948605701
rclavicle -1.2308532508556552e-15 -1.0190451385460488e-15
rhumerus -40.48758731956765 -33.914190849803006 -68.19074778295061
rradius 13.456579715642462
rwrist 15.14843551204049
rhand -17.34055752957055 29.00583530274702
rfingers 7.125020000000056
rthumb 8.907163845789238 -7.40711942194921
73
root 0.1995454346166908 18.123886489157563 27.35400085869022 -3.9167359108662954 0.237622826507063 -3.6351121006655296
lfemur 2.9136485490605466 -1.454087270490363 -16.22262039372616
ltibia 63.16842006916009
lfoot 16.499070995753467 -16.257310490380995
ltoes -10.230698675026716
rfemur -21.05813659132113 6.072494751254575 29.2546939285526
rtibia 16.927830551829746
rfoot -9.666795656318955 -6.032129118423119
rtoes 8.764147526778949
lowerback 9.670786190505329 -1.639281290387299 0.8577670553348146
upperback 0.20847101112057065 -1.8531624054598312 3.5071321848220753
thorax -5.188150487437342 -0.8820837954889019 3.3700266705965936
lowerneck -15.745782783049215 -2.0944766777912758 -2.144867956351204
upperneck 22.394296457230755 -2.3769040885648622 -0.26822772925357397
head 9.660546096149739 -1.2831583008331986 -0.07455772888938472
lclavicle -1.0706206310168304e-15 -8.949550995179694e-16
lhumerus -24.253059033436514 -0.6941893867860132 81.20036238068496
lradius 24.929718321848135
lwrist 5.308205672013846
lhand -29.18619171619396 23.166692511527604
lfingers 7.125020000000057
lthumb -2.5312317300339853 53.11660821245914
rclavicle -1.07062063101683e-15 -8.949550995179693e-16
rhumerus -38.982627937094726 -32.23942674620545 -69.20321103827393
rradius 15.566181773664987
rwrist 14.049695352395734
rhand -17.296124766955067 28.718822372646358
rfingers 7.125020000000057
rthumb 8.95000086317152 -7.099452034705403
74
root 0.16992559548803327 18.185011246128706 27.560915279772935 -4.016494332869617 0.06058312997783566 -4.6703410099102545
lfemur -3.969757781662988 -0.3126596259622062 -14.589418378446197
ltibia 70.27958890306287
lfoot 15.815181238409462 -14.963165697951897
ltoes -7.180777209603935
rfemur -16.563116334098055 6.175623615423823 31.271361823989835
rtibia 17.80529860180187
rfoot -10.793278064882326 -6.038166038583712
rtoes 9.988328279763707
lowerback 9.879317139401866 -1.2009447750282218 2.1590060752488087
upperback 0.23037742925759253 -1.1156609172297935 3.5016325996501854
thorax -5.270974074765185 -0.5553687317679773 2.5327581834437782
lowerneck -15.6896642338655 -2.271181794096518 -2.0591729527614193
upperneck 22.261019667326917 -2.6631558103867947 -0.109312346586667
head 9.61143703582354 -1.402005627749028 -0.06722631178636901
lclavicle -8.681718563103435e-16 -7.382243710120851e-16
lhumerus -26.51751555492853 -0.3934057226153298 81.95242034602938
lradius 26.18594625947886
lwrist 5.427435842649841
lhand -28.806911354917343 23.138997014533693
lfingers 7.125020000000057
lthumb -2.1649173987156347 53.09484972226922
rclavicle -8.6817185631034325e-16 -7.382243710120848e-16
rhumerus -36.940859633594364 -29.282986538046426 -71.10754340447423
rradius 18.708583905851995
rwrist 12.108608054735072
rhand -17.265976698849475 28.503893333264273
rfingers 7.125020000000057
rthumb 8.978950774648824 -6.610515990967137
75
root 0.1354308392924522 18.19221426371415 28.10386539067285 -3.7706498736675 -0.11884525249876776 -5.526030126733484
lfemur -10.446926877242516 0.8199789908184523 -13.198794041781401
ltibia 74.96370271174445
lfoot 12.729919540394583 -12.36029915211892
ltoes -4.7946102580375936
rfemur -12.9636040497513 6.254412767475028 32.96374127953932
rtibia 19.526641188409062
rfoot -12.827473260386636 -6.725575956408839
rtoes 10.749608501575047
lowerback 10.228575256415013 -0.7174395490802098 3.289251626417168
upperback 0.2800421294903012 -0.3525978896716825 3.396835713702651
thorax -5.381024902741443 -0.21023367373290125 1.7097067803367856
lowerneck -15.779685402814302 -2.4531769519826057 -1.9755140918886422
upperneck 21.737348914199103 -2.9735258499279533 0.19119295405427406
head 9.461467847290677 -1.5171246113348706 -0.013444736242098354
lclavicle -5.911505514871184e-16 -5.23734834174323e-16
lhumerus -28.37734794517494 -0.32305425450865766 82.88348680269308
lradius 29.110600056175436
lwrist 6.24838976706822
lhand -28.578960609956557 22.66178161964298
lfingers 7.125020000000058
lthumb -1.944765767198286 52.62300653899246
rclavicle -5.911505514871188e-16 -5.237348341743228e-16
rhumerus -34.94891740989869 -25.068991938102677 -73.81058817078247
rradius 23.471006242597483
rwrist 9.371737394790976
rhand -17.266458521986202 28.43434000307827
rfingers 7.125020000000058
rthumb 8.978265050039322 -5.872373771329036
